<svg xmlns="http://www.w3.org/2000/svg" width="200" height="200" viewBox="0 0 109 109">
  <path d="M85.67,98.71m-8.49,0a8.49,8.49 0,1 1,16.98 0a8.49,8.49 0,1 1,-16.98 0" fill="#f15a12"/>
  <path d="M98.41,31.35c-2.39,-5.89 -5.71,-11.02 -9.94,-15.4 -4.24,-4.37 -9.23,-7.82 -14.98,-10.36 -5.75,-2.53 -11.99,-3.8 -18.71,-3.8s-12.98,1.27 -18.78,3.8c-5.8,2.53 -10.84,5.96 -15.12,10.29 -4.28,4.33 -7.66,9.46 -10.15,15.4 -2.49,5.94 -3.73,12.27 -3.73,18.99s1.27,12.86 3.8,18.71c2.53,5.85 5.96,10.93 10.29,15.26 4.33,4.33 9.39,7.73 15.19,10.22 5.8,2.49 11.97,3.73 18.5,3.73s12.79,-1.24 18.5,-3.73c0.85,-0.37 1.67,-0.76 2.49,-1.17 -4.38,-0.33 -7.84,-3.98 -7.84,-8.45 0,-2.5 1.08,-4.73 2.8,-6.28 -1.1,0.61 -2.23,1.19 -3.43,1.69 -3.97,1.66 -8.16,2.49 -12.59,2.49s-8.6,-0.85 -12.52,-2.56c-3.92,-1.7 -7.36,-4.05 -10.31,-7.04 -2.95,-2.99 -5.28,-6.44 -6.99,-10.36 -1.71,-3.91 -2.56,-8.08 -2.56,-12.5s0.83,-8.77 2.49,-12.77c1.66,-4 3.94,-7.5 6.85,-10.49 2.91,-2.99 6.34,-5.36 10.31,-7.11 3.97,-1.75 8.21,-2.62 12.73,-2.62s8.9,0.85 12.87,2.56c3.97,1.7 7.4,4.05 10.31,7.04 2.91,2.99 5.19,6.49 6.85,10.49 1.66,4 2.49,8.31 2.49,12.91s-0.85,8.86 -2.56,12.77c-1.71,3.91 -4.04,7.34 -6.99,10.29 -1.34,1.34 -2.81,2.53 -4.36,3.6 0.96,-0.38 2,-0.59 3.1,-0.59 4.69,0 8.49,3.8 8.49,8.49 0,1.01 -0.18,1.97 -0.51,2.87 1.35,-1.1 2.64,-2.27 3.87,-3.53 4.28,-4.37 7.64,-9.46 10.08,-15.26 2.44,-5.8 3.66,-12.01 3.66,-18.64s-1.2,-13.03 -3.59,-18.92Z" fill="#f15a12"/>
</svg>
