<?xml version="1.0" encoding="UTF-8"?>
<svg id="Calque_1" data-name="Calque 1" xmlns="http://www.w3.org/2000/svg" viewBox="0 0 109 109">
  <defs>
    <style>
      .cls-1 {
        fill: #fff;
      }

      .cls-2 {
        fill: #f15a12;
      }
    </style>
  </defs>
  <rect class="cls-1" x="0" y="0" width="109" height="109" rx="16.27" ry="16.27"/>
  <g>
    <circle class="cls-2" cx="70.9" cy="77.77" r="4.47"/>
    <path class="cls-2" d="M77.61,42.32c-1.26-3.1-3-5.8-5.23-8.1-2.23-2.3-4.86-4.12-7.89-5.45-3.03-1.33-6.31-2-9.85-2s-6.83.67-9.88,2c-3.05,1.33-5.7,3.14-7.96,5.41-2.25,2.28-4.03,4.98-5.34,8.1-1.31,3.12-1.96,6.46-1.96,9.99s.67,6.77,2,9.85c1.33,3.08,3.14,5.75,5.41,8.03,2.28,2.28,4.94,4.07,7.99,5.38,3.05,1.31,6.3,1.96,9.74,1.96s6.73-.65,9.74-1.96c.45-.19.88-.4,1.31-.62-2.31-.17-4.13-2.1-4.13-4.45,0-1.31.57-2.49,1.47-3.31-.58.32-1.18.63-1.8.89-2.09.87-4.3,1.31-6.63,1.31s-4.53-.45-6.59-1.34c-2.06-.9-3.87-2.13-5.43-3.71-1.55-1.57-2.78-3.39-3.68-5.45-.9-2.06-1.35-4.25-1.35-6.58s.44-4.61,1.31-6.72c.87-2.11,2.08-3.95,3.61-5.52,1.53-1.57,3.34-2.82,5.43-3.74,2.09-.92,4.32-1.38,6.7-1.38s4.69.45,6.77,1.34c2.09.9,3.9,2.13,5.43,3.71,1.53,1.57,2.73,3.42,3.61,5.52.87,2.11,1.31,4.37,1.31,6.8s-.45,4.66-1.35,6.72c-.9,2.06-2.12,3.86-3.68,5.41-.71.71-1.48,1.33-2.3,1.9.51-.2,1.05-.31,1.63-.31,2.47,0,4.47,2,4.47,4.47,0,.53-.1,1.04-.27,1.51.71-.58,1.39-1.19,2.04-1.86,2.25-2.3,4.02-4.98,5.31-8.03,1.28-3.05,1.93-6.32,1.93-9.81s-.63-6.86-1.89-9.96Z"/>
  </g>
</svg>